<?xml version="1.0" encoding="UTF-8" standalone="no"?>
<!-- Created with Inkscape (http://www.inkscape.org/) -->

<svg
   width="1920px"
   height="1080px"
   viewBox="0 0 1920 1080"
   version="1.1"
   id="SVGRoot"
   sodipodi:docname="CollectorDex.svg"
   inkscape:version="1.2.2 (b0a8486541, 2022-12-01)"
   xmlns:inkscape="http://www.inkscape.org/namespaces/inkscape"
   xmlns:sodipodi="http://sodipodi.sourceforge.net/DTD/sodipodi-0.dtd"
   xmlns="http://www.w3.org/2000/svg"
   xmlns:svg="http://www.w3.org/2000/svg">
  <sodipodi:namedview
     id="namedview512"
     pagecolor="#505050"
     bordercolor="#ffffff"
     borderopacity="1"
     inkscape:showpageshadow="0"
     inkscape:pageopacity="0"
     inkscape:pagecheckerboard="1"
     inkscape:deskcolor="#505050"
     inkscape:document-units="px"
     showgrid="false"
     inkscape:zoom="0.5"
     inkscape:cx="969"
     inkscape:cy="515"
     inkscape:window-width="1892"
     inkscape:window-height="1018"
     inkscape:window-x="12"
     inkscape:window-y="46"
     inkscape:window-maximized="1"
     inkscape:current-layer="layer1" />
  <defs
     id="defs507" />
  <g
     inkscape:label="Layer 1"
     inkscape:groupmode="layer"
     id="layer1">
    <path
       id="rect1008"
       style="fill:#000000;stroke-width:1.37594"
       d="M 0.8671875 1.3886719 L 0.8671875 1079.8848 L 1921.6426 1079.8848 L 1921.6426 1.3886719 L 0.8671875 1.3886719 z M 386.36328 207.01758 L 462.75781 207.01758 L 462.75781 874.77148 L 386.36328 874.77148 L 386.36328 207.01758 z M 474.39453 207.01758 L 550.78906 207.01758 L 550.78906 874.77148 L 474.39453 874.77148 L 474.39453 207.01758 z M 96.470703 217.2207 C 154.6517 217.2207 190.57227 276.57675 190.57227 386.94141 L 190.57227 533.47461 L 109.625 533.47461 L 109.625 253.39062 C 109.625 230.20477 104.05934 222.78516 97.988281 222.78516 C 91.411299 222.78516 85.845703 230.20477 85.845703 253.39062 L 85.845703 847.875 C 85.845703 870.13342 91.411299 878.48047 97.988281 878.48047 C 104.05934 878.48047 109.625 870.13342 109.625 847.875 L 109.625 567.79102 L 190.57227 567.79102 L 190.57227 713.39844 C 190.57227 824.69052 154.6517 884.04688 96.470703 884.04688 C 38.795628 884.04688 4.8984375 826.54539 4.8984375 713.39844 L 4.8984375 386.94141 C 4.8984375 273.79445 38.795628 217.2207 96.470703 217.2207 z M 1396.6914 225.56641 L 1487.7578 225.56641 C 1545.4329 225.56641 1581.3535 277.50449 1581.3535 387.86914 L 1581.3535 712.4707 C 1581.3535 823.76279 1545.4329 874.77148 1487.7578 874.77148 L 1396.6914 874.77148 L 1396.6914 225.56641 z M 1477.6387 231.13086 L 1477.6387 869.20703 L 1486.7461 869.20703 C 1495.8527 869.20703 1500.4062 862.71485 1500.4062 838.60156 L 1500.4062 261.73633 C 1500.4063 237.62304 1495.8527 231.13086 1486.7461 231.13086 L 1477.6387 231.13086 z M 1022.8145 291.41406 L 1022.8145 401.7793 L 1062.2773 401.7793 L 1062.2773 407.34375 L 1022.8145 407.34375 L 1022.8145 810.7793 C 1022.8145 856.22357 1031.416 871.99023 1047.6055 871.99023 C 1052.1588 871.99023 1057.2181 871.0619 1062.7832 869.20703 L 1062.7832 874.77148 C 1045.5819 880.33609 1029.8983 884.04688 1015.2266 884.04688 C 974.2469 884.04687 946.41992 851.58491 946.41992 733.80078 L 946.41992 407.34375 L 924.66602 407.34375 L 924.66602 401.7793 L 946.41992 401.7793 L 946.41992 299.76172 L 1022.8145 291.41406 z M 287.20312 392.50586 C 343.86636 392.50586 374.72852 459.28168 374.72852 551.09766 L 374.72852 726.38281 C 374.72852 817.27135 343.86636 884.04688 287.20312 884.04688 C 230.53989 884.04687 201.19727 818.19878 201.19727 726.38281 L 201.19727 551.09766 C 201.19727 458.35425 230.53989 392.50586 287.20312 392.50586 z M 646.91406 392.50586 C 700.54176 392.50586 734.94336 453.71678 734.94336 550.16992 L 734.94336 638.27539 L 637.80664 638.27539 L 637.80664 848.80273 C 637.80664 867.35142 641.85472 878.48047 647.92578 878.48047 C 654.50276 878.48047 658.55078 867.35142 658.55078 848.80273 L 658.55078 680.9375 L 734.94336 680.9375 L 734.94336 725.45508 C 734.94336 822.83565 700.54176 884.04688 646.91406 884.04688 C 593.79228 884.04688 561.41211 823.76309 561.41211 725.45508 L 561.41211 550.16992 C 561.41211 452.78935 593.79228 392.50586 646.91406 392.50586 z M 831.57617 392.50586 C 885.20387 392.50586 919.09961 453.71708 919.09961 551.09766 L 919.09961 596.54102 L 842.70508 596.54102 L 842.70508 427.74805 C 842.70508 409.19937 838.65901 398.07031 832.08203 398.07031 C 826.01097 398.07031 821.96289 409.19937 821.96289 427.74805 L 821.96289 848.80273 C 821.96289 867.35142 826.01097 878.48047 832.08203 878.48047 C 838.65901 878.48047 842.70508 867.35142 842.70508 848.80273 L 842.70508 680.00977 L 919.09961 680.00977 L 919.09961 726.38281 C 919.09961 822.83595 885.20387 884.04688 831.57617 884.04688 C 777.94847 884.04687 745.56836 823.76339 745.56836 726.38281 L 745.56836 551.09766 C 745.56836 452.78965 777.94847 392.50586 831.57617 392.50586 z M 1155.3672 392.50586 C 1212.0304 392.50586 1242.8906 459.28168 1242.8906 551.09766 L 1242.8906 726.38281 C 1242.8906 817.27135 1212.0304 884.04688 1155.3672 884.04688 C 1098.704 884.04687 1069.3594 818.19878 1069.3594 726.38281 L 1069.3594 551.09766 C 1069.3594 458.35425 1098.704 392.50586 1155.3672 392.50586 z M 1381.5137 392.50586 C 1383.5374 392.50586 1385.5623 392.50616 1387.5859 393.43359 L 1387.5859 531.62109 C 1383.0326 530.69366 1378.4791 529.76562 1373.9258 529.76562 C 1343.0646 529.76562 1330.416 562.22595 1330.416 620.6543 L 1330.416 874.77148 L 1254.0215 874.77148 L 1254.0215 401.7793 L 1330.416 401.7793 L 1330.416 562.22656 L 1331.4277 562.22656 C 1336.9929 473.19289 1350.1465 392.50586 1381.5137 392.50586 z M 1677.4785 392.50586 C 1731.1062 392.50586 1765.5098 453.71678 1765.5098 550.16992 L 1765.5098 638.27539 L 1668.3711 638.27539 L 1668.3711 848.80273 C 1668.3711 867.35142 1672.4192 878.48047 1678.4902 878.48047 C 1685.0672 878.48047 1689.1152 867.35142 1689.1152 848.80273 L 1689.1152 680.9375 L 1765.5098 680.9375 L 1765.5098 725.45508 C 1765.5098 822.83565 1731.1062 884.04688 1677.4785 884.04688 C 1624.3567 884.04688 1591.9785 823.76309 1591.9785 725.45508 L 1591.9785 550.16992 C 1591.9785 452.78935 1624.3567 392.50586 1677.4785 392.50586 z M 288.21484 398.07031 C 281.63786 398.07031 277.58984 408.27193 277.58984 427.74805 L 277.58984 848.80273 C 277.58984 867.35142 281.63786 878.48047 288.21484 878.48047 C 294.2859 878.48047 298.33398 867.35142 298.33398 848.80273 L 298.33398 427.74805 C 298.33398 408.27193 294.2859 398.07031 288.21484 398.07031 z M 647.92578 398.07031 C 641.85472 398.07031 637.80664 408.27163 637.80664 426.82031 L 637.80664 632.71094 L 658.55078 632.71094 L 658.55078 426.82031 C 658.55078 408.27163 654.50276 398.07031 647.92578 398.07031 z M 1156.3789 398.07031 C 1149.8019 398.07031 1145.7539 408.27193 1145.7539 427.74805 L 1145.7539 848.80273 C 1145.7539 867.35142 1149.8019 878.48047 1156.3789 878.48047 C 1162.45 878.48047 1166.4961 867.35142 1166.4961 848.80273 L 1166.4961 427.74805 C 1166.4961 408.27193 1162.45 398.07031 1156.3789 398.07031 z M 1678.4902 398.07031 C 1672.4192 398.07031 1668.3711 408.27163 1668.3711 426.82031 L 1668.3711 632.71094 L 1689.1152 632.71094 L 1689.1152 426.82031 C 1689.1152 408.27163 1685.0672 398.07031 1678.4902 398.07031 z M 1775.6289 401.7793 L 1852.5293 401.7793 L 1880.3535 602.10547 L 1881.3652 602.10547 L 1911.2148 401.7793 L 1914.7559 401.7793 L 1882.377 618.79883 L 1916.7812 874.77148 L 1840.3867 874.77148 L 1811.043 661.46094 L 1810.0312 661.46094 L 1776.1348 874.77148 L 1773.0977 874.77148 L 1809.0195 645.69531 L 1775.6289 401.7793 z " />
  </g>
</svg>
