<svg width="24" height="18" viewBox="0 0 28 22" fill="none" xmlns="http://www.w3.org/2000/svg">
<path d="M4.70289 21.8545C4.3723 21.8545 4.104 21.6381 4.104 21.3715V13.4303C4.104 13.1637 4.3723 12.9473 4.70289 12.9473C5.03347 12.9473 5.30177 13.1637 5.30177 13.4303V21.3715C5.30177 21.6381 5.03377 21.8545 4.70289 21.8545Z" fill="black"/>
<path d="M22.5464 14.4547C22.2158 14.4547 21.9475 14.2383 21.9475 13.9717V0.603849C21.9475 0.33725 22.2158 0.12088 22.5464 0.12088C22.877 0.12088 23.1453 0.33725 23.1453 0.603849V13.9717C23.1453 14.2385 22.877 14.4547 22.5464 14.4547Z" fill="black"/>
<path d="M13.6248 21.8545C13.2942 21.8545 13.0259 21.6381 13.0259 21.3715V6.86361C13.0259 6.59702 13.2942 6.38065 13.6248 6.38065C13.9553 6.38065 14.2236 6.59702 14.2236 6.86361V21.3715C14.2236 21.6381 13.9553 21.8545 13.6248 21.8545Z" fill="black"/>
<path d="M13.6247 7.34658C11.9885 7.34658 10.6572 6.27319 10.6572 4.95347C10.6572 3.63376 11.9882 2.56036 13.6247 2.56036C15.2611 2.56036 16.5921 3.63376 16.5921 4.95347C16.5921 6.27319 15.2611 7.34658 13.6247 7.34658ZM13.6247 3.52654C12.6488 3.52654 11.855 4.16672 11.855 4.95372C11.855 5.74071 12.6488 6.38089 13.6247 6.38089C14.6006 6.38089 15.3944 5.74071 15.3944 4.95372C15.3944 4.16672 14.6006 3.52654 13.6247 3.52654Z" fill="black"/>
<path d="M4.70281 13.9133C3.06666 13.9133 1.73535 12.8399 1.73535 11.5202C1.73535 10.2007 3.06637 9.12704 4.70281 9.12704C6.33925 9.12704 7.67027 10.2004 7.67027 11.5202C7.67027 12.8399 6.33895 13.9133 4.70281 13.9133ZM4.70281 10.093C3.72693 10.093 2.93311 10.7332 2.93311 11.5202C2.93311 12.3072 3.72693 12.9473 4.70281 12.9473C5.67869 12.9473 6.4725 12.3072 6.4725 11.5202C6.4725 10.7332 5.67869 10.093 4.70281 10.093Z" fill="black"/>
<path d="M22.5465 18.275C20.9104 18.275 19.5793 17.2016 19.5793 15.8819C19.5793 14.5624 20.9104 13.489 22.5465 13.489C24.1829 13.489 25.514 14.5624 25.514 15.8819C25.514 17.2013 24.1829 18.275 22.5465 18.275ZM22.5465 14.4547C21.5706 14.4547 20.7771 15.0946 20.7771 15.8816C20.7771 16.6686 21.5706 17.3088 22.5465 17.3088C23.5224 17.3088 24.3162 16.6686 24.3162 15.8816C24.3162 15.0946 23.5224 14.4547 22.5465 14.4547Z" fill="black"/>
<path d="M4.70289 10.093C4.3723 10.093 4.104 9.87661 4.104 9.61001V0.603849C4.104 0.33725 4.3723 0.12088 4.70289 0.12088C5.03347 0.12088 5.30177 0.33725 5.30177 0.603849V9.61001C5.30177 9.87685 5.03377 10.093 4.70289 10.093Z" fill="black"/>
<path d="M13.6248 3.52653C13.2942 3.52653 13.0259 3.31016 13.0259 3.04357V0.603849C13.0259 0.33725 13.2942 0.12088 13.6248 0.12088C13.9553 0.12088 14.2236 0.33725 14.2236 0.603849V3.04357C14.2236 3.31016 13.9553 3.52653 13.6248 3.52653Z" fill="black"/>
<path d="M22.5464 21.8545C22.2158 21.8545 21.9475 21.6381 21.9475 21.3715V17.792C21.9475 17.5254 22.2158 17.309 22.5464 17.309C22.877 17.309 23.1453 17.5254 23.1453 17.792V21.3715C23.1453 21.6381 22.877 21.8545 22.5464 21.8545Z" fill="black"/>
</svg>
