<svg width="869" height="212" viewBox="0 0 869 212" fill="none" xmlns="http://www.w3.org/2000/svg">
<g clip-path="url(#clip0_8_64)">
<path fill-rule="evenodd" clip-rule="evenodd" d="M706.921 29.1933L771.34 32.0608C774.571 32.2046 776.772 35.4273 776.23 39.2221L761.801 140.354C761.26 144.149 758.173 147.136 754.942 146.992L690.522 144.125C687.292 143.981 685.091 140.758 685.633 136.964L700.062 35.8315C700.603 32.0366 703.69 29.0494 706.921 29.1933Z" fill="white"/>
<path d="M707.005 28.6052L771.422 31.4728C771.411 31.4716 771.434 31.4734 771.422 31.4728C773.182 31.5623 774.695 32.4823 775.658 33.8924C776.618 35.2983 777.068 37.1959 776.776 39.2448L762.346 140.378C762.049 142.417 761.066 144.27 759.726 145.566C758.367 146.882 756.636 147.659 754.86 147.58L690.441 144.713C690.452 144.714 690.429 144.712 690.441 144.713C689.954 144.688 689.453 144.598 689.015 144.454C688.566 144.306 688.147 144.101 687.761 143.845C685.79 142.537 684.665 139.896 685.087 136.94L699.517 35.8072C699.599 35.2438 699.737 34.6683 699.917 34.1433C700.1 33.611 700.329 33.1019 700.599 32.6236C701.993 30.1463 704.454 28.4921 707.005 28.6052ZM771.257 32.6485L706.837 29.7808C704.735 29.6876 702.694 31.0719 701.528 33.1439C701.299 33.5503 701.104 33.9835 700.948 34.4372C700.795 34.8833 700.681 35.3506 700.611 35.8327C700.612 35.822 700.61 35.8433 700.611 35.8327L686.178 136.988C685.82 139.495 686.76 141.726 688.416 142.825C688.735 143.036 689.08 143.206 689.445 143.326C689.803 143.444 690.182 143.516 690.577 143.536C690.569 143.535 690.586 143.536 690.577 143.536L755.026 146.405C756.48 146.469 757.908 145.824 759.035 144.734C760.171 143.635 761.001 142.086 761.253 140.35C761.251 140.359 761.254 140.34 761.253 140.35L775.682 39.2197C775.68 39.2303 775.683 39.2091 775.682 39.2197C775.928 37.4794 775.552 35.839 774.742 34.6522C773.944 33.4839 772.699 32.7222 771.257 32.6485C771.266 32.6488 771.248 32.6486 771.257 32.6485Z" fill="#1F1A17"/>
<path fill-rule="evenodd" clip-rule="evenodd" d="M733.876 29.7533L795.529 44.8519C798.622 45.6091 800.206 49.2619 799.051 52.9693L768.259 151.77C767.103 155.477 763.628 157.891 760.536 157.133L698.882 142.035C695.79 141.278 694.206 137.625 695.361 133.918L726.153 35.1169C727.309 31.4096 730.784 28.9961 733.876 29.7533Z" fill="white"/>
<path d="M734.055 29.1794L795.707 44.2773C797.403 44.6936 798.69 45.8997 799.388 47.5091C800.078 49.1005 800.196 51.088 799.575 53.0884C799.581 53.0717 799.569 53.1059 799.575 53.0884L768.782 151.891C768.158 153.89 766.904 155.554 765.388 156.607C763.857 157.67 762.058 158.122 760.36 157.708C760.369 157.71 760.351 157.705 760.36 157.708L698.705 142.609C697.008 142.193 695.722 140.987 695.023 139.377C694.333 137.786 694.216 135.798 694.837 133.798C694.831 133.814 694.842 133.781 694.837 133.798L725.629 34.9952C725.802 34.4411 726.028 33.8983 726.295 33.3935C726.561 32.8922 726.867 32.4247 727.205 31.9974C728.964 29.7752 731.614 28.582 734.055 29.1794ZM795.35 45.4253L733.696 30.3268C731.686 29.8347 729.488 30.8374 728.017 32.6962C727.727 33.0624 727.466 33.4604 727.241 33.8847C727.018 34.3058 726.828 34.7604 726.677 35.2438L695.897 134C695.901 133.986 695.894 134.013 695.897 134C695.366 135.702 695.449 137.439 696.034 138.787C696.612 140.119 697.667 141.117 699.061 141.458L760.697 156.555C762.088 156.895 763.592 156.524 764.859 155.644C766.141 154.753 767.203 153.348 767.735 151.642L798.515 52.8835C798.512 52.8958 798.518 52.8714 798.515 52.8835C799.046 51.1808 798.962 49.4469 798.377 48.0988C797.799 46.767 796.743 45.7672 795.35 45.4253Z" fill="#1F1A17"/>
<path fill-rule="evenodd" clip-rule="evenodd" d="M761.051 34.9446L817.497 62.7876C820.328 64.1841 821.187 68.1737 819.406 71.6537L771.942 164.392C770.161 167.872 766.387 169.577 763.556 168.18L707.11 140.337C704.279 138.941 703.42 134.951 705.201 131.471L752.665 38.7326C754.446 35.2527 758.22 33.5482 761.051 34.9446Z" fill="white"/>
<path d="M761.329 34.4057L817.775 62.2485C819.325 63.0168 820.343 64.4938 820.721 66.2488C821.095 67.9863 820.848 70.0029 819.89 71.8797L772.42 164.63C771.458 166.503 769.953 167.91 768.31 168.653C766.649 169.403 764.842 169.487 763.289 168.724L706.833 140.876C705.282 140.108 704.265 138.631 703.887 136.876C703.513 135.139 703.76 133.122 704.718 131.245L752.187 38.4951C752.459 37.9666 752.775 37.4695 753.117 37.0269C753.46 36.5837 753.84 36.1785 754.247 35.8156C756.338 33.9528 759.096 33.3044 761.329 34.4057ZM817.22 63.3265L760.774 35.4838C758.935 34.5769 756.646 35.1273 754.898 36.6849C754.558 36.9875 754.236 37.3322 753.94 37.7156C753.643 38.0996 753.376 38.5158 753.148 38.9603L705.689 131.691C704.873 133.288 704.649 135.025 704.966 136.495C705.278 137.948 706.108 139.164 707.38 139.794L763.835 167.641C765.108 168.267 766.603 168.198 767.977 167.577C769.368 166.949 770.64 165.761 771.46 164.165L818.925 71.4245C819.74 69.8269 819.959 68.1002 819.643 66.6298C819.33 65.1771 818.492 63.9568 817.22 63.3265Z" fill="#1F1A17"/>
<path fill-rule="evenodd" clip-rule="evenodd" d="M785.912 45.9064L835.509 84.8394C837.997 86.792 838.141 90.9637 835.83 94.1096L774.236 177.95C771.924 181.096 767.998 182.073 765.511 180.12L715.914 141.187C713.426 139.234 713.282 135.063 715.593 131.917L777.187 48.0762C779.498 44.9302 783.425 43.9538 785.912 45.9064Z" fill="white"/>
<path d="M786.27 45.4165L835.867 84.3494C835.855 84.3383 835.88 84.3593 835.867 84.3494C836.237 84.6457 836.598 85.019 836.869 85.392C837.151 85.7797 837.382 86.2039 837.56 86.6544C838.472 88.9573 838.051 91.9897 836.252 94.4389L774.658 178.279C774.67 178.265 774.647 178.294 774.658 178.279C774.316 178.74 773.908 179.2 773.511 179.569C773.103 179.951 772.669 180.284 772.219 180.566C769.884 182.033 767.114 182.15 765.153 180.61L715.556 141.677C715.568 141.688 715.543 141.667 715.556 141.677C715.186 141.381 714.825 141.007 714.554 140.635C714.272 140.247 714.042 139.823 713.863 139.372C712.952 137.069 713.372 134.037 715.171 131.588L776.765 47.7477C776.753 47.7615 776.776 47.7327 776.765 47.7477C778.011 46.0714 779.719 44.9286 781.417 44.5063C783.146 44.0764 784.905 44.3467 786.27 45.4165ZM835.152 85.3293L785.554 46.3964C784.433 45.5178 782.981 45.2967 781.55 45.6526C780.114 46.0098 778.695 46.943 777.636 48.3666C777.646 48.3538 777.628 48.3798 777.636 48.3666L716.016 132.246C714.488 134.324 714.125 136.882 714.89 138.813C715.037 139.186 715.226 139.535 715.455 139.85C715.679 140.157 715.939 140.434 716.236 140.672C716.225 140.664 716.247 140.679 716.236 140.672L765.868 179.63C767.487 180.901 769.788 180.794 771.737 179.57C772.121 179.329 772.491 179.045 772.839 178.721C773.179 178.404 773.497 178.049 773.788 177.659C773.779 177.671 773.796 177.646 773.788 177.659L835.407 93.7809C836.934 91.7017 837.297 89.1441 836.533 87.2132C836.385 86.8401 836.197 86.4916 835.967 86.1764C835.744 85.8696 835.448 85.5673 835.152 85.3293C835.163 85.3379 835.14 85.3219 835.152 85.3293Z" fill="#1F1A17"/>
<path fill-rule="evenodd" clip-rule="evenodd" d="M809.67 61.7263L848.998 112.14C850.971 114.669 850.26 118.876 847.42 121.49L771.715 191.153C768.874 193.767 764.936 193.837 762.963 191.309L723.635 140.894C721.663 138.366 722.373 134.158 725.214 131.544L800.919 61.8819C803.76 59.2679 807.698 59.1979 809.67 61.7263Z" fill="white"/>
<path d="M810.11 61.3193L849.438 111.733C850.521 113.123 850.869 114.97 850.556 116.825C850.247 118.657 849.291 120.499 847.763 121.909L772.049 191.579C771.621 191.972 771.159 192.321 770.699 192.605C770.235 192.89 769.752 193.124 769.261 193.304C766.741 194.233 764.079 193.709 762.523 191.715L723.195 141.301C722.892 140.912 722.645 140.484 722.454 140.029C722.264 139.576 722.13 139.098 722.051 138.605C721.65 136.091 722.667 133.153 724.879 131.118L800.584 61.4553C801.015 61.0585 801.47 60.7152 801.934 60.4296C802.398 60.1443 802.881 59.9108 803.372 59.73C805.892 58.8014 808.554 59.3248 810.11 61.3193ZM848.558 112.547L809.23 62.1331C807.946 60.4879 805.731 60.0636 803.623 60.8402C803.214 60.9908 802.805 61.1896 802.405 61.436C802.005 61.682 801.619 61.9725 801.255 62.307L725.549 131.971C723.671 133.698 722.805 136.176 723.142 138.286C723.207 138.693 723.316 139.085 723.471 139.454C723.625 139.82 723.825 140.168 724.074 140.486L763.403 190.902C764.687 192.547 766.902 192.971 769.01 192.194C769.419 192.044 769.828 191.845 770.229 191.599C770.628 191.353 771.014 191.062 771.378 190.727L847.085 121.064C848.387 119.862 849.21 118.292 849.471 116.742C849.73 115.208 849.446 113.686 848.558 112.547Z" fill="#1F1A17"/>
</g>
<path d="M42.5 76.25C53.4375 76.25 62.1875 79.1667 68.75 85C71.4375 87.375 73.3542 89.7708 74.5 92.1875C75.6667 94.5833 76.25 97.6042 76.25 101.25C76.25 104.021 75.2708 106.385 73.3125 108.344C71.375 110.281 69.0208 111.25 66.25 111.25C63.4792 111.25 61.1146 110.281 59.1562 108.344C57.2188 106.385 56.25 104.021 56.25 101.25C56.25 99.8333 56.5312 98.5 57.0938 97.25C57.6562 95.9792 58.4375 94.875 59.4375 93.9375C57.9375 91.1458 55.9062 89.1667 53.3438 88C50.8021 86.8333 47.6042 86.25 43.75 86.25C41.2292 86.25 38.8854 86.7604 36.7188 87.7812C34.5729 88.8021 32.7083 90.2292 31.125 92.0625C29.5625 93.8958 28.2188 96.0625 27.0938 98.5625C25.9688 101.062 25.125 103.812 24.5625 106.812C24.0208 109.792 23.75 112.938 23.75 116.25C23.75 119.521 24.0833 122.667 24.75 125.688C25.4167 128.708 26.3854 131.458 27.6562 133.938C28.9271 136.417 30.4167 138.583 32.125 140.438C33.8333 142.271 35.7917 143.698 38 144.719C40.2292 145.74 42.5625 146.25 45 146.25C48.5417 146.25 51.8333 145.302 54.875 143.406C57.9375 141.51 60.4688 138.854 62.4688 135.438C64.4896 132 65.75 128.104 66.25 123.75L76.25 126.25C75.75 128.688 75.1667 130.958 74.5 133.062C73.8333 135.146 73 137.229 72 139.312C71 141.375 69.8646 143.24 68.5938 144.906C67.3229 146.573 65.8229 148.125 64.0938 149.562C62.3646 151 60.4583 152.208 58.375 153.188C56.2917 154.146 53.9062 154.896 51.2188 155.438C48.5312 155.979 45.625 156.25 42.5 156.25C38.7708 156.25 35.2083 155.854 31.8125 155.062C28.4375 154.292 25.375 153.208 22.625 151.812C19.8958 150.417 17.375 148.75 15.0625 146.812C12.75 144.875 10.75 142.74 9.0625 140.406C7.375 138.052 5.9375 135.562 4.75 132.938C3.58333 130.292 2.70833 127.573 2.125 124.781C1.54167 121.969 1.25 119.125 1.25 116.25C1.25 113.375 1.54167 110.542 2.125 107.75C2.70833 104.938 3.58333 102.219 4.75 99.5938C5.9375 96.9479 7.375 94.4583 9.0625 92.125C10.75 89.7708 12.75 87.625 15.0625 85.6875C17.375 83.75 19.8958 82.0833 22.625 80.6875C25.375 79.2917 28.4375 78.2083 31.8125 77.4375C35.2083 76.6458 38.7708 76.25 42.5 76.25ZM100.156 98.5938C103.823 97.1562 107.708 96.4375 111.812 96.4375C115.917 96.4375 119.792 97.1562 123.438 98.5938C127.104 100.031 130.292 102.042 133 104.625C135.708 107.188 137.844 110.354 139.406 114.125C140.99 117.896 141.781 122 141.781 126.438C141.781 130.875 140.99 134.979 139.406 138.75C137.844 142.521 135.708 145.698 133 148.281C130.292 150.844 127.104 152.844 123.438 154.281C119.792 155.719 115.917 156.438 111.812 156.438C107.708 156.438 103.823 155.719 100.156 154.281C96.5104 152.844 93.3333 150.844 90.625 148.281C87.9375 145.698 85.8021 142.521 84.2188 138.75C82.6562 134.979 81.875 130.875 81.875 126.438C81.875 122 82.6562 117.896 84.2188 114.125C85.8021 110.354 87.9375 107.188 90.625 104.625C93.3333 102.042 96.5104 100.031 100.156 98.5938ZM111.812 106.438C110.354 106.438 109.052 106.646 107.906 107.062C106.76 107.479 105.708 108.167 104.75 109.125C103.792 110.083 103 111.323 102.375 112.844C101.771 114.365 101.292 116.26 100.938 118.531C100.604 120.802 100.438 123.438 100.438 126.438C100.438 129.438 100.604 132.073 100.938 134.344C101.292 136.615 101.771 138.51 102.375 140.031C103 141.552 103.792 142.792 104.75 143.75C105.708 144.708 106.76 145.396 107.906 145.812C109.052 146.229 110.354 146.438 111.812 146.438C113.646 146.438 115.24 146.094 116.594 145.406C117.948 144.698 119.125 143.573 120.125 142.031C121.146 140.49 121.906 138.417 122.406 135.812C122.927 133.208 123.188 130.083 123.188 126.438C123.188 122.792 122.927 119.667 122.406 117.062C121.906 114.458 121.146 112.385 120.125 110.844C119.125 109.302 117.948 108.188 116.594 107.5C115.24 106.792 113.646 106.438 111.812 106.438ZM144.875 77.5H168.625V145H174.875V155H144.875V145H151.125V87.5H144.875V77.5ZM179.875 77.5H203.625V145H209.875V155H179.875V145H186.125V87.5H179.875V77.5ZM232.938 130C233.125 132.417 233.521 134.573 234.125 136.469C234.729 138.365 235.458 139.917 236.312 141.125C237.188 142.333 238.198 143.333 239.344 144.125C240.49 144.896 241.667 145.448 242.875 145.781C244.083 146.094 245.375 146.25 246.75 146.25C251.146 146.25 254.573 145.406 257.031 143.719C259.51 142.01 261.49 139.385 262.969 135.844L271.281 138.719C270.531 140.74 269.573 142.646 268.406 144.438C267.26 146.208 265.875 147.844 264.25 149.344C262.625 150.844 260.812 152.135 258.812 153.219C256.833 154.281 254.594 155.115 252.094 155.719C249.594 156.323 246.958 156.625 244.188 156.625C240.083 156.625 236.198 155.906 232.531 154.469C228.885 153.031 225.708 151.031 223 148.469C220.312 145.885 218.177 142.708 216.594 138.938C215.031 135.167 214.25 131.062 214.25 126.625C214.25 122.188 215.031 118.062 216.594 114.25C218.177 110.438 220.312 107.229 223 104.625C225.708 102 228.885 99.9479 232.531 98.4688C236.198 96.9896 240.083 96.25 244.188 96.25C248.292 96.25 252.167 96.9896 255.812 98.4688C259.479 99.9479 262.656 102 265.344 104.625C268.052 107.229 270.188 110.438 271.75 114.25C273.333 118.062 274.125 122.188 274.125 126.625L273.344 130H232.938ZM233.156 120H255.219C254.677 115.208 253.479 111.719 251.625 109.531C249.771 107.344 247.312 106.25 244.25 106.25C242.729 106.25 241.365 106.5 240.156 107C238.948 107.479 237.865 108.26 236.906 109.344C235.948 110.406 235.146 111.833 234.5 113.625C233.875 115.396 233.427 117.521 233.156 120ZM320.75 108.469C318.375 106.99 315.354 106.25 311.688 106.25C310.208 106.25 308.833 106.458 307.562 106.875C306.292 107.271 305.073 107.958 303.906 108.938C302.76 109.917 301.781 111.156 300.969 112.656C300.156 114.156 299.51 116.062 299.031 118.375C298.552 120.688 298.312 123.312 298.312 126.25C298.312 129.188 298.573 131.802 299.094 134.094C299.615 136.385 300.302 138.26 301.156 139.719C302.031 141.177 303.073 142.375 304.281 143.312C305.51 144.25 306.771 144.917 308.062 145.312C309.354 145.688 310.75 145.875 312.25 145.875C316.646 145.875 320.073 145.031 322.531 143.344C325.01 141.635 326.99 139.01 328.469 135.469L336.781 138.344C336.031 140.365 335.073 142.271 333.906 144.062C332.76 145.833 331.375 147.469 329.75 148.969C328.125 150.469 326.312 151.76 324.312 152.844C322.333 153.906 320.094 154.74 317.594 155.344C315.094 155.948 312.458 156.25 309.688 156.25C305.583 156.25 301.698 155.531 298.031 154.094C294.385 152.656 291.208 150.656 288.5 148.094C285.812 145.51 283.677 142.333 282.094 138.562C280.531 134.792 279.75 130.688 279.75 126.25C279.75 122.688 280.25 119.333 281.25 116.188C282.25 113.042 283.656 110.26 285.469 107.844C287.302 105.427 289.448 103.344 291.906 101.594C294.365 99.8438 297.094 98.5208 300.094 97.625C303.094 96.7083 306.24 96.25 309.531 96.25C312.135 96.25 314.583 96.5 316.875 97C319.167 97.4792 321.208 98.1458 323 99C324.812 99.8333 326.5 100.875 328.062 102.125C329.625 103.375 330.99 104.708 332.156 106.125C333.344 107.521 334.448 109.094 335.469 110.844C336.531 112.49 337.062 114.292 337.062 116.25C337.062 119.021 336.083 121.385 334.125 123.344C332.188 125.281 329.833 126.25 327.062 126.25C324.292 126.25 321.927 125.281 319.969 123.344C318.031 121.385 317.062 119.021 317.062 116.25C317.062 114.708 317.385 113.26 318.031 111.906C318.698 110.552 319.604 109.406 320.75 108.469ZM360.25 85H366.5V97.5H384V107.5H366.5V140C366.5 141.417 366.896 142.604 367.688 143.562C368.5 144.521 369.771 145 371.5 145C373.438 145 375.083 144.365 376.438 143.094C377.792 141.802 378.646 139.938 379 137.5L386.5 138.75C386.188 141.188 385.583 143.448 384.688 145.531C383.812 147.594 382.667 149.438 381.25 151.062C379.833 152.667 378.073 153.938 375.969 154.875C373.885 155.792 371.562 156.25 369 156.25C362.771 156.25 357.875 154.802 354.312 151.906C350.771 148.99 349 145.021 349 140V107.5H342.75V97.5H344C347.208 97.5 350.042 96.5833 352.5 94.75C354.958 92.9167 357.542 89.6667 360.25 85ZM410.406 98.5938C414.073 97.1562 417.958 96.4375 422.062 96.4375C426.167 96.4375 430.042 97.1562 433.688 98.5938C437.354 100.031 440.542 102.042 443.25 104.625C445.958 107.188 448.094 110.354 449.656 114.125C451.24 117.896 452.031 122 452.031 126.438C452.031 130.875 451.24 134.979 449.656 138.75C448.094 142.521 445.958 145.698 443.25 148.281C440.542 150.844 437.354 152.844 433.688 154.281C430.042 155.719 426.167 156.438 422.062 156.438C417.958 156.438 414.073 155.719 410.406 154.281C406.76 152.844 403.583 150.844 400.875 148.281C398.188 145.698 396.052 142.521 394.469 138.75C392.906 134.979 392.125 130.875 392.125 126.438C392.125 122 392.906 117.896 394.469 114.125C396.052 110.354 398.188 107.188 400.875 104.625C403.583 102.042 406.76 100.031 410.406 98.5938ZM422.062 106.438C420.604 106.438 419.302 106.646 418.156 107.062C417.01 107.479 415.958 108.167 415 109.125C414.042 110.083 413.25 111.323 412.625 112.844C412.021 114.365 411.542 116.26 411.188 118.531C410.854 120.802 410.688 123.438 410.688 126.438C410.688 129.438 410.854 132.073 411.188 134.344C411.542 136.615 412.021 138.51 412.625 140.031C413.25 141.552 414.042 142.792 415 143.75C415.958 144.708 417.01 145.396 418.156 145.812C419.302 146.229 420.604 146.438 422.062 146.438C423.896 146.438 425.49 146.094 426.844 145.406C428.198 144.698 429.375 143.573 430.375 142.031C431.396 140.49 432.156 138.417 432.656 135.812C433.177 133.208 433.438 130.083 433.438 126.438C433.438 122.792 433.177 119.667 432.656 117.062C432.156 114.458 431.396 112.385 430.375 110.844C429.375 109.302 428.198 108.188 426.844 107.5C425.49 106.792 423.896 106.438 422.062 106.438ZM457.625 97.5H477.031L480.969 105.094C484.656 99.1979 489.875 96.25 496.625 96.25C501.146 96.25 504.729 97.6458 507.375 100.438C510.042 103.208 511.375 106.812 511.375 111.25C511.375 114.021 510.396 116.385 508.438 118.344C506.5 120.281 504.146 121.25 501.375 121.25C498.604 121.25 496.24 120.281 494.281 118.344C492.344 116.385 491.375 114.021 491.375 111.25C491.375 110.125 491.552 109.042 491.906 108C491.344 107.667 490.75 107.5 490.125 107.5C488.729 107.5 487.281 108.417 485.781 110.25C484.302 112.062 482.875 114.781 481.5 118.406L481.375 145H495.125V155H457.625V145H463.875V107.5H457.625V97.5ZM551.375 155H511.375V145H521.375V87.5H511.375V77.5H551.375C555.854 77.5 560.083 78 564.062 79C568.042 79.9792 571.562 81.3542 574.625 83.125C577.708 84.875 580.469 86.9583 582.906 89.375C585.365 91.7917 587.385 94.4375 588.969 97.3125C590.573 100.188 591.792 103.229 592.625 106.438C593.458 109.625 593.875 112.896 593.875 116.25C593.875 119.604 593.458 122.885 592.625 126.094C591.792 129.281 590.573 132.312 588.969 135.188C587.385 138.062 585.365 140.708 582.906 143.125C580.469 145.542 577.708 147.635 574.625 149.406C571.562 151.156 568.042 152.531 564.062 153.531C560.083 154.51 555.854 155 551.375 155ZM551.375 145C554.625 145 557.531 144.281 560.094 142.844C562.656 141.385 564.75 139.365 566.375 136.781C568.021 134.198 569.26 131.177 570.094 127.719C570.948 124.24 571.375 120.417 571.375 116.25C571.375 112.917 571.125 109.812 570.625 106.938C570.125 104.062 569.344 101.427 568.281 99.0312C567.219 96.6146 565.906 94.5625 564.344 92.875C562.802 91.1667 560.927 89.8438 558.719 88.9062C556.51 87.9688 554.062 87.5 551.375 87.5H541.375V145H551.375ZM618.812 130C619 132.417 619.396 134.573 620 136.469C620.604 138.365 621.333 139.917 622.188 141.125C623.062 142.333 624.073 143.333 625.219 144.125C626.365 144.896 627.542 145.448 628.75 145.781C629.958 146.094 631.25 146.25 632.625 146.25C637.021 146.25 640.448 145.406 642.906 143.719C645.385 142.01 647.365 139.385 648.844 135.844L657.156 138.719C656.406 140.74 655.448 142.646 654.281 144.438C653.135 146.208 651.75 147.844 650.125 149.344C648.5 150.844 646.688 152.135 644.688 153.219C642.708 154.281 640.469 155.115 637.969 155.719C635.469 156.323 632.833 156.625 630.062 156.625C625.958 156.625 622.073 155.906 618.406 154.469C614.76 153.031 611.583 151.031 608.875 148.469C606.188 145.885 604.052 142.708 602.469 138.938C600.906 135.167 600.125 131.062 600.125 126.625C600.125 122.188 600.906 118.062 602.469 114.25C604.052 110.438 606.188 107.229 608.875 104.625C611.583 102 614.76 99.9479 618.406 98.4688C622.073 96.9896 625.958 96.25 630.062 96.25C634.167 96.25 638.042 96.9896 641.688 98.4688C645.354 99.9479 648.531 102 651.219 104.625C653.927 107.229 656.062 110.438 657.625 114.25C659.208 118.062 660 122.188 660 126.625L659.219 130H618.812ZM619.031 120H641.094C640.552 115.208 639.354 111.719 637.5 109.531C635.646 107.344 633.188 106.25 630.125 106.25C628.604 106.25 627.24 106.5 626.031 107C624.823 107.479 623.74 108.26 622.781 109.344C621.823 110.406 621.021 111.833 620.375 113.625C619.75 115.396 619.302 117.521 619.031 120ZM692.5 145V155H665V145H670.969L685.969 126.25L670.969 107.5H665V97.5H697.5V107.5H690.969L701.125 120.188L711.25 107.5H703.75V97.5H731.25V107.5H725L710 126.25L725 145H731.25V155H698.75V145H705L694.875 132.312L684.719 145H692.5Z" fill="#58287F"/>
<defs>
<clipPath id="clip0_8_64">
<rect width="172.507" height="144.867" fill="white" transform="translate(719.433) rotate(30)"/>
</clipPath>
</defs>
</svg>
