<svg width="200" height="50" viewBox="0 0 885 200" fill="none" xmlns="http://www.w3.org/2000/svg">
<g filter="url(#filter0_d_8_64)">
<path d="M45.5 30.25C56.4375 30.25 65.1875 33.1667 71.75 39C74.4375 41.375 76.3542 43.7708 77.5 46.1875C78.6667 48.5833 79.25 51.6042 79.25 55.25C79.25 58.0208 78.2708 60.3854 76.3125 62.3438C74.375 64.2812 72.0208 65.25 69.25 65.25C66.4792 65.25 64.1146 64.2812 62.1562 62.3438C60.2188 60.3854 59.25 58.0208 59.25 55.25C59.25 53.8333 59.5312 52.5 60.0938 51.25C60.6562 49.9792 61.4375 48.875 62.4375 47.9375C60.9375 45.1458 58.9062 43.1667 56.3438 42C53.8021 40.8333 50.6042 40.25 46.75 40.25C44.2292 40.25 41.8854 40.7604 39.7188 41.7812C37.5729 42.8021 35.7083 44.2292 34.125 46.0625C32.5625 47.8958 31.2188 50.0625 30.0938 52.5625C28.9688 55.0625 28.125 57.8125 27.5625 60.8125C27.0208 63.7917 26.75 66.9375 26.75 70.25C26.75 73.5208 27.0833 76.6667 27.75 79.6875C28.4167 82.7083 29.3854 85.4583 30.6562 87.9375C31.9271 90.4167 33.4167 92.5833 35.125 94.4375C36.8333 96.2708 38.7917 97.6979 41 98.7188C43.2292 99.7396 45.5625 100.25 48 100.25C51.5417 100.25 54.8333 99.3021 57.875 97.4062C60.9375 95.5104 63.4688 92.8542 65.4688 89.4375C67.4896 86 68.75 82.1042 69.25 77.75L79.25 80.25C78.75 82.6875 78.1667 84.9583 77.5 87.0625C76.8333 89.1458 76 91.2292 75 93.3125C74 95.375 72.8646 97.2396 71.5938 98.9062C70.3229 100.573 68.8229 102.125 67.0938 103.562C65.3646 105 63.4583 106.208 61.375 107.188C59.2917 108.146 56.9062 108.896 54.2188 109.438C51.5312 109.979 48.625 110.25 45.5 110.25C41.7708 110.25 38.2083 109.854 34.8125 109.062C31.4375 108.292 28.375 107.208 25.625 105.812C22.8958 104.417 20.375 102.75 18.0625 100.812C15.75 98.875 13.75 96.7396 12.0625 94.4062C10.375 92.0521 8.9375 89.5625 7.75 86.9375C6.58333 84.2917 5.70833 81.5729 5.125 78.7812C4.54167 75.9688 4.25 73.125 4.25 70.25C4.25 67.375 4.54167 64.5417 5.125 61.75C5.70833 58.9375 6.58333 56.2188 7.75 53.5938C8.9375 50.9479 10.375 48.4583 12.0625 46.125C13.75 43.7708 15.75 41.625 18.0625 39.6875C20.375 37.75 22.8958 36.0833 25.625 34.6875C28.375 33.2917 31.4375 32.2083 34.8125 31.4375C38.2083 30.6458 41.7708 30.25 45.5 30.25ZM103.156 52.5938C106.823 51.1562 110.708 50.4375 114.812 50.4375C118.917 50.4375 122.792 51.1562 126.438 52.5938C130.104 54.0312 133.292 56.0417 136 58.625C138.708 61.1875 140.844 64.3542 142.406 68.125C143.99 71.8958 144.781 76 144.781 80.4375C144.781 84.875 143.99 88.9792 142.406 92.75C140.844 96.5208 138.708 99.6979 136 102.281C133.292 104.844 130.104 106.844 126.438 108.281C122.792 109.719 118.917 110.438 114.812 110.438C110.708 110.438 106.823 109.719 103.156 108.281C99.5104 106.844 96.3333 104.844 93.625 102.281C90.9375 99.6979 88.8021 96.5208 87.2188 92.75C85.6562 88.9792 84.875 84.875 84.875 80.4375C84.875 76 85.6562 71.8958 87.2188 68.125C88.8021 64.3542 90.9375 61.1875 93.625 58.625C96.3333 56.0417 99.5104 54.0312 103.156 52.5938ZM114.812 60.4375C113.354 60.4375 112.052 60.6458 110.906 61.0625C109.76 61.4792 108.708 62.1667 107.75 63.125C106.792 64.0833 106 65.3229 105.375 66.8438C104.771 68.3646 104.292 70.2604 103.938 72.5312C103.604 74.8021 103.438 77.4375 103.438 80.4375C103.438 83.4375 103.604 86.0729 103.938 88.3438C104.292 90.6146 104.771 92.5104 105.375 94.0312C106 95.5521 106.792 96.7917 107.75 97.75C108.708 98.7083 109.76 99.3958 110.906 99.8125C112.052 100.229 113.354 100.438 114.812 100.438C116.646 100.438 118.24 100.094 119.594 99.4062C120.948 98.6979 122.125 97.5729 123.125 96.0312C124.146 94.4896 124.906 92.4167 125.406 89.8125C125.927 87.2083 126.188 84.0833 126.188 80.4375C126.188 76.7917 125.927 73.6667 125.406 71.0625C124.906 68.4583 124.146 66.3854 123.125 64.8438C122.125 63.3021 120.948 62.1875 119.594 61.5C118.24 60.7917 116.646 60.4375 114.812 60.4375ZM147.875 31.5H171.625V99H177.875V109H147.875V99H154.125V41.5H147.875V31.5ZM182.875 31.5H206.625V99H212.875V109H182.875V99H189.125V41.5H182.875V31.5ZM235.938 84C236.125 86.4167 236.521 88.5729 237.125 90.4688C237.729 92.3646 238.458 93.9167 239.312 95.125C240.188 96.3333 241.198 97.3333 242.344 98.125C243.49 98.8958 244.667 99.4479 245.875 99.7812C247.083 100.094 248.375 100.25 249.75 100.25C254.146 100.25 257.573 99.4062 260.031 97.7188C262.51 96.0104 264.49 93.3854 265.969 89.8438L274.281 92.7188C273.531 94.7396 272.573 96.6458 271.406 98.4375C270.26 100.208 268.875 101.844 267.25 103.344C265.625 104.844 263.812 106.135 261.812 107.219C259.833 108.281 257.594 109.115 255.094 109.719C252.594 110.323 249.958 110.625 247.188 110.625C243.083 110.625 239.198 109.906 235.531 108.469C231.885 107.031 228.708 105.031 226 102.469C223.312 99.8854 221.177 96.7083 219.594 92.9375C218.031 89.1667 217.25 85.0625 217.25 80.625C217.25 76.1875 218.031 72.0625 219.594 68.25C221.177 64.4375 223.312 61.2292 226 58.625C228.708 56 231.885 53.9479 235.531 52.4688C239.198 50.9896 243.083 50.25 247.188 50.25C251.292 50.25 255.167 50.9896 258.812 52.4688C262.479 53.9479 265.656 56 268.344 58.625C271.052 61.2292 273.188 64.4375 274.75 68.25C276.333 72.0625 277.125 76.1875 277.125 80.625L276.344 84H235.938ZM236.156 74H258.219C257.677 69.2083 256.479 65.7188 254.625 63.5312C252.771 61.3438 250.312 60.25 247.25 60.25C245.729 60.25 244.365 60.5 243.156 61C241.948 61.4792 240.865 62.2604 239.906 63.3438C238.948 64.4062 238.146 65.8333 237.5 67.625C236.875 69.3958 236.427 71.5208 236.156 74ZM323.75 62.4688C321.375 60.9896 318.354 60.25 314.688 60.25C313.208 60.25 311.833 60.4583 310.562 60.875C309.292 61.2708 308.073 61.9583 306.906 62.9375C305.76 63.9167 304.781 65.1562 303.969 66.6562C303.156 68.1562 302.51 70.0625 302.031 72.375C301.552 74.6875 301.312 77.3125 301.312 80.25C301.312 83.1875 301.573 85.8021 302.094 88.0938C302.615 90.3854 303.302 92.2604 304.156 93.7188C305.031 95.1771 306.073 96.375 307.281 97.3125C308.51 98.25 309.771 98.9167 311.062 99.3125C312.354 99.6875 313.75 99.875 315.25 99.875C319.646 99.875 323.073 99.0312 325.531 97.3438C328.01 95.6354 329.99 93.0104 331.469 89.4688L339.781 92.3438C339.031 94.3646 338.073 96.2708 336.906 98.0625C335.76 99.8333 334.375 101.469 332.75 102.969C331.125 104.469 329.312 105.76 327.312 106.844C325.333 107.906 323.094 108.74 320.594 109.344C318.094 109.948 315.458 110.25 312.688 110.25C308.583 110.25 304.698 109.531 301.031 108.094C297.385 106.656 294.208 104.656 291.5 102.094C288.812 99.5104 286.677 96.3333 285.094 92.5625C283.531 88.7917 282.75 84.6875 282.75 80.25C282.75 76.6875 283.25 73.3333 284.25 70.1875C285.25 67.0417 286.656 64.2604 288.469 61.8438C290.302 59.4271 292.448 57.3438 294.906 55.5938C297.365 53.8438 300.094 52.5208 303.094 51.625C306.094 50.7083 309.24 50.25 312.531 50.25C315.135 50.25 317.583 50.5 319.875 51C322.167 51.4792 324.208 52.1458 326 53C327.812 53.8333 329.5 54.875 331.062 56.125C332.625 57.375 333.99 58.7083 335.156 60.125C336.344 61.5208 337.448 63.0938 338.469 64.8438C339.531 66.4896 340.062 68.2917 340.062 70.25C340.062 73.0208 339.083 75.3854 337.125 77.3438C335.188 79.2812 332.833 80.25 330.062 80.25C327.292 80.25 324.927 79.2812 322.969 77.3438C321.031 75.3854 320.062 73.0208 320.062 70.25C320.062 68.7083 320.385 67.2604 321.031 65.9062C321.698 64.5521 322.604 63.4062 323.75 62.4688ZM363.25 39H369.5V51.5H387V61.5H369.5V94C369.5 95.4167 369.896 96.6042 370.688 97.5625C371.5 98.5208 372.771 99 374.5 99C376.438 99 378.083 98.3646 379.438 97.0938C380.792 95.8021 381.646 93.9375 382 91.5L389.5 92.75C389.188 95.1875 388.583 97.4479 387.688 99.5312C386.812 101.594 385.667 103.438 384.25 105.062C382.833 106.667 381.073 107.938 378.969 108.875C376.885 109.792 374.562 110.25 372 110.25C365.771 110.25 360.875 108.802 357.312 105.906C353.771 102.99 352 99.0208 352 94V61.5H345.75V51.5H347C350.208 51.5 353.042 50.5833 355.5 48.75C357.958 46.9167 360.542 43.6667 363.25 39ZM413.406 52.5938C417.073 51.1562 420.958 50.4375 425.062 50.4375C429.167 50.4375 433.042 51.1562 436.688 52.5938C440.354 54.0312 443.542 56.0417 446.25 58.625C448.958 61.1875 451.094 64.3542 452.656 68.125C454.24 71.8958 455.031 76 455.031 80.4375C455.031 84.875 454.24 88.9792 452.656 92.75C451.094 96.5208 448.958 99.6979 446.25 102.281C443.542 104.844 440.354 106.844 436.688 108.281C433.042 109.719 429.167 110.438 425.062 110.438C420.958 110.438 417.073 109.719 413.406 108.281C409.76 106.844 406.583 104.844 403.875 102.281C401.188 99.6979 399.052 96.5208 397.469 92.75C395.906 88.9792 395.125 84.875 395.125 80.4375C395.125 76 395.906 71.8958 397.469 68.125C399.052 64.3542 401.188 61.1875 403.875 58.625C406.583 56.0417 409.76 54.0312 413.406 52.5938ZM425.062 60.4375C423.604 60.4375 422.302 60.6458 421.156 61.0625C420.01 61.4792 418.958 62.1667 418 63.125C417.042 64.0833 416.25 65.3229 415.625 66.8438C415.021 68.3646 414.542 70.2604 414.188 72.5312C413.854 74.8021 413.688 77.4375 413.688 80.4375C413.688 83.4375 413.854 86.0729 414.188 88.3438C414.542 90.6146 415.021 92.5104 415.625 94.0312C416.25 95.5521 417.042 96.7917 418 97.75C418.958 98.7083 420.01 99.3958 421.156 99.8125C422.302 100.229 423.604 100.438 425.062 100.438C426.896 100.438 428.49 100.094 429.844 99.4062C431.198 98.6979 432.375 97.5729 433.375 96.0312C434.396 94.4896 435.156 92.4167 435.656 89.8125C436.177 87.2083 436.438 84.0833 436.438 80.4375C436.438 76.7917 436.177 73.6667 435.656 71.0625C435.156 68.4583 434.396 66.3854 433.375 64.8438C432.375 63.3021 431.198 62.1875 429.844 61.5C428.49 60.7917 426.896 60.4375 425.062 60.4375ZM460.625 51.5H480.031L483.969 59.0938C487.656 53.1979 492.875 50.25 499.625 50.25C504.146 50.25 507.729 51.6458 510.375 54.4375C513.042 57.2083 514.375 60.8125 514.375 65.25C514.375 68.0208 513.396 70.3854 511.438 72.3438C509.5 74.2812 507.146 75.25 504.375 75.25C501.604 75.25 499.24 74.2812 497.281 72.3438C495.344 70.3854 494.375 68.0208 494.375 65.25C494.375 64.125 494.552 63.0417 494.906 62C494.344 61.6667 493.75 61.5 493.125 61.5C491.729 61.5 490.281 62.4167 488.781 64.25C487.302 66.0625 485.875 68.7812 484.5 72.4062L484.375 99H498.125V109H460.625V99H466.875V61.5H460.625V51.5ZM554.375 109H514.375V99H524.375V41.5H514.375V31.5H554.375C558.854 31.5 563.083 32 567.062 33C571.042 33.9792 574.562 35.3542 577.625 37.125C580.708 38.875 583.469 40.9583 585.906 43.375C588.365 45.7917 590.385 48.4375 591.969 51.3125C593.573 54.1875 594.792 57.2292 595.625 60.4375C596.458 63.625 596.875 66.8958 596.875 70.25C596.875 73.6042 596.458 76.8854 595.625 80.0938C594.792 83.2812 593.573 86.3125 591.969 89.1875C590.385 92.0625 588.365 94.7083 585.906 97.125C583.469 99.5417 580.708 101.635 577.625 103.406C574.562 105.156 571.042 106.531 567.062 107.531C563.083 108.51 558.854 109 554.375 109ZM554.375 99C557.625 99 560.531 98.2812 563.094 96.8438C565.656 95.3854 567.75 93.3646 569.375 90.7812C571.021 88.1979 572.26 85.1771 573.094 81.7188C573.948 78.2396 574.375 74.4167 574.375 70.25C574.375 66.9167 574.125 63.8125 573.625 60.9375C573.125 58.0625 572.344 55.4271 571.281 53.0312C570.219 50.6146 568.906 48.5625 567.344 46.875C565.802 45.1667 563.927 43.8438 561.719 42.9062C559.51 41.9688 557.062 41.5 554.375 41.5H544.375V99H554.375ZM621.812 84C622 86.4167 622.396 88.5729 623 90.4688C623.604 92.3646 624.333 93.9167 625.188 95.125C626.062 96.3333 627.073 97.3333 628.219 98.125C629.365 98.8958 630.542 99.4479 631.75 99.7812C632.958 100.094 634.25 100.25 635.625 100.25C640.021 100.25 643.448 99.4062 645.906 97.7188C648.385 96.0104 650.365 93.3854 651.844 89.8438L660.156 92.7188C659.406 94.7396 658.448 96.6458 657.281 98.4375C656.135 100.208 654.75 101.844 653.125 103.344C651.5 104.844 649.688 106.135 647.688 107.219C645.708 108.281 643.469 109.115 640.969 109.719C638.469 110.323 635.833 110.625 633.062 110.625C628.958 110.625 625.073 109.906 621.406 108.469C617.76 107.031 614.583 105.031 611.875 102.469C609.188 99.8854 607.052 96.7083 605.469 92.9375C603.906 89.1667 603.125 85.0625 603.125 80.625C603.125 76.1875 603.906 72.0625 605.469 68.25C607.052 64.4375 609.188 61.2292 611.875 58.625C614.583 56 617.76 53.9479 621.406 52.4688C625.073 50.9896 628.958 50.25 633.062 50.25C637.167 50.25 641.042 50.9896 644.688 52.4688C648.354 53.9479 651.531 56 654.219 58.625C656.927 61.2292 659.062 64.4375 660.625 68.25C662.208 72.0625 663 76.1875 663 80.625L662.219 84H621.812ZM622.031 74H644.094C643.552 69.2083 642.354 65.7188 640.5 63.5312C638.646 61.3438 636.188 60.25 633.125 60.25C631.604 60.25 630.24 60.5 629.031 61C627.823 61.4792 626.74 62.2604 625.781 63.3438C624.823 64.4062 624.021 65.8333 623.375 67.625C622.75 69.3958 622.302 71.5208 622.031 74ZM695.5 99V109H668V99H673.969L688.969 80.25L673.969 61.5H668V51.5H700.5V61.5H693.969L704.125 74.1875L714.25 61.5H706.75V51.5H734.25V61.5H728L713 80.25L728 99H734.25V109H701.75V99H708L697.875 86.3125L687.719 99H695.5Z" fill="#58287F"/>
</g>
<path d="M557.687 156.741C561.726 156.029 565.147 156.536 567.951 158.263C569.098 158.965 569.962 159.725 570.542 160.543C571.129 161.352 571.541 162.429 571.779 163.776C571.959 164.799 571.752 165.736 571.156 166.587C570.567 167.429 569.76 167.94 568.737 168.12C567.714 168.301 566.777 168.097 565.928 167.509C565.085 166.912 564.573 166.102 564.393 165.078C564.301 164.555 564.318 164.044 564.444 163.546C564.569 163.04 564.785 162.581 565.094 162.17C564.358 161.237 563.479 160.638 562.457 160.374C561.442 160.109 560.223 160.102 558.8 160.353C557.869 160.517 557.036 160.858 556.303 161.376C555.577 161.893 554.981 162.541 554.516 163.321C554.058 164.1 553.703 164.988 553.45 165.984C553.198 166.981 553.065 168.051 553.053 169.196C553.047 170.331 553.151 171.511 553.367 172.734C553.58 173.942 553.908 175.082 554.351 176.154C554.794 177.226 555.331 178.179 555.962 179.012C556.592 179.845 557.284 180.548 558.035 181.121C558.785 181.687 559.602 182.087 560.484 182.32C561.373 182.552 562.268 182.588 563.168 182.429C564.476 182.199 565.63 181.634 566.63 180.736C567.638 179.837 568.399 178.691 568.916 177.299C569.438 175.898 569.65 174.377 569.551 172.736L573.407 173.008C573.381 173.941 573.313 174.818 573.204 175.638C573.094 176.451 572.921 177.275 572.688 178.109C572.453 178.936 572.155 179.699 571.794 180.397C571.433 181.095 570.98 181.766 570.436 182.409C569.891 183.053 569.265 183.623 568.56 184.121C567.853 184.61 567.021 185.042 566.063 185.417C565.106 185.793 564.05 186.082 562.896 186.285C561.519 186.528 560.178 186.614 558.872 186.543C557.576 186.478 556.374 186.277 555.267 185.941C554.169 185.603 553.129 185.152 552.149 184.587C551.169 184.022 550.291 183.363 549.516 182.612C548.74 181.852 548.047 181.026 547.437 180.134C546.834 179.233 546.334 178.286 545.937 177.293C545.538 176.292 545.245 175.261 545.058 174.199C544.871 173.138 544.794 172.072 544.828 171.003C544.86 169.927 545.006 168.866 545.266 167.82C545.532 166.766 545.901 165.753 546.372 164.781C546.842 163.802 547.441 162.879 548.169 162.013C548.897 161.147 549.719 160.367 550.636 159.674C551.561 158.979 552.621 158.38 553.817 157.876C555.02 157.362 556.31 156.984 557.687 156.741ZM580.435 161.238C581.695 160.469 583.083 159.95 584.599 159.683C586.114 159.416 587.592 159.429 589.032 159.722C590.48 160.014 591.788 160.549 592.957 161.327C594.124 162.097 595.118 163.127 595.941 164.418C596.771 165.708 597.331 167.172 597.62 168.81C597.909 170.449 597.884 172.016 597.545 173.512C597.213 175.006 596.631 176.319 595.799 177.449C594.966 178.572 593.919 179.518 592.659 180.288C591.406 181.056 590.022 181.574 588.506 181.841C586.99 182.108 585.508 182.096 584.061 181.804C582.621 181.51 581.317 180.979 580.15 180.209C578.989 179.43 577.994 178.395 577.164 177.106C576.341 175.815 575.785 174.35 575.496 172.711C575.207 171.073 575.229 169.506 575.56 168.012C575.899 166.516 576.482 165.208 577.307 164.086C578.139 162.956 579.182 162.006 580.435 161.238ZM585.25 163.376C584.711 163.471 584.244 163.633 583.848 163.861C583.452 164.09 583.108 164.412 582.817 164.828C582.525 165.245 582.314 165.754 582.182 166.356C582.058 166.957 582.004 167.689 582.021 168.55C582.046 169.411 582.156 170.395 582.352 171.503C582.547 172.611 582.78 173.573 583.051 174.39C583.33 175.205 583.63 175.874 583.952 176.397C584.282 176.918 584.655 177.324 585.071 177.615C585.488 177.907 585.921 178.092 586.371 178.172C586.822 178.251 587.316 178.243 587.855 178.148C588.532 178.029 589.098 177.798 589.553 177.456C590.007 177.106 590.369 176.614 590.638 175.979C590.914 175.344 591.06 174.529 591.075 173.534C591.098 172.539 590.991 171.368 590.753 170.021C590.516 168.675 590.216 167.538 589.854 166.61C589.5 165.681 589.084 164.965 588.607 164.462C588.137 163.958 587.63 163.623 587.085 163.457C586.539 163.284 585.927 163.256 585.25 163.376ZM595.576 150.536L604.347 148.99L608.742 173.918L611.05 173.511L611.701 177.204L600.622 179.157L599.971 175.464L602.279 175.057L598.535 153.822L596.227 154.229L595.576 150.536ZM608.501 148.257L617.272 146.711L621.668 171.638L623.976 171.231L624.627 174.925L613.548 176.878L612.897 173.185L615.205 172.778L611.461 151.543L609.152 151.95L608.501 148.257ZM631.516 164.19C631.743 165.07 632.029 165.841 632.376 166.502C632.722 167.163 633.093 167.688 633.487 168.079C633.889 168.468 634.327 168.772 634.802 168.989C635.275 169.199 635.746 169.327 636.214 169.371C636.68 169.408 637.167 169.381 637.675 169.292C639.299 169.006 640.509 168.471 641.307 167.688C642.112 166.895 642.672 165.797 642.987 164.393L646.244 164.913C646.099 165.708 645.869 166.475 645.555 167.212C645.247 167.941 644.842 168.635 644.34 169.295C643.837 169.955 643.252 170.55 642.584 171.08C641.922 171.601 641.149 172.055 640.265 172.441C639.381 172.827 638.428 173.11 637.405 173.29C635.889 173.558 634.407 173.545 632.959 173.253C631.519 172.96 630.216 172.428 629.049 171.658C627.888 170.879 626.893 169.845 626.062 168.555C625.24 167.264 624.684 165.799 624.395 164.161C624.106 162.522 624.126 160.948 624.455 159.438C624.791 157.927 625.371 156.603 626.194 155.466C627.023 154.32 628.063 153.356 629.313 152.572C630.571 151.787 631.957 151.261 633.473 150.994C634.989 150.726 636.468 150.747 637.911 151.056C639.361 151.363 640.668 151.914 641.831 152.709C643.001 153.494 643.999 154.54 644.824 155.846C645.657 157.151 646.218 158.623 646.507 160.262L646.438 161.559L631.516 164.19ZM630.946 160.483L639.093 159.046C638.581 157.312 637.912 156.101 637.085 155.414C636.257 154.727 635.278 154.483 634.147 154.683C633.586 154.782 633.098 154.963 632.684 155.226C632.269 155.482 631.92 155.841 631.637 156.303C631.352 156.758 631.149 157.337 631.027 158.041C630.911 158.736 630.884 159.55 630.946 160.483ZM662.543 150.52C661.57 150.129 660.406 150.052 659.052 150.291C658.506 150.387 658.012 150.554 657.569 150.791C657.126 151.02 656.721 151.353 656.354 151.79C655.994 152.227 655.713 152.748 655.511 153.355C655.308 153.962 655.194 154.708 655.168 155.593C655.141 156.478 655.224 157.463 655.415 158.548C655.606 159.633 655.873 160.582 656.214 161.394C656.556 162.206 656.932 162.854 657.342 163.337C657.76 163.819 658.223 164.193 658.73 164.461C659.245 164.727 659.754 164.891 660.257 164.953C660.759 165.007 661.286 164.986 661.84 164.888C663.464 164.602 664.674 164.067 665.472 163.284C666.277 162.492 666.837 161.393 667.152 159.989L670.409 160.509C670.264 161.305 670.034 162.071 669.72 162.809C669.412 163.537 669.007 164.231 668.504 164.891C668.002 165.551 667.417 166.146 666.749 166.676C666.087 167.198 665.314 167.651 664.43 168.037C663.546 168.423 662.593 168.706 661.569 168.887C660.054 169.154 658.572 169.141 657.124 168.849C655.684 168.556 654.381 168.024 653.214 167.254C652.053 166.475 651.058 165.441 650.227 164.151C649.405 162.861 648.849 161.396 648.56 159.757C648.328 158.441 648.294 157.17 648.459 155.943C648.623 154.716 648.961 153.598 649.473 152.587C649.993 151.575 650.65 150.666 651.444 149.86C652.238 149.053 653.159 148.387 654.209 147.861C655.257 147.327 656.389 146.953 657.605 146.739C658.566 146.569 659.487 146.502 660.366 146.537C661.243 146.565 662.041 146.678 662.758 146.877C663.481 147.067 664.172 147.342 664.831 147.701C665.489 148.061 666.08 148.465 666.603 148.912C667.133 149.35 667.643 149.859 668.134 150.439C668.633 150.978 668.947 151.609 669.074 152.332C669.255 153.355 669.047 154.292 668.452 155.143C667.862 155.985 667.056 156.496 666.033 156.676C665.009 156.856 664.073 156.653 663.224 156.065C662.381 155.468 661.869 154.657 661.688 153.634C661.588 153.065 661.613 152.509 661.763 151.967C661.921 151.423 662.181 150.941 662.543 150.52ZM675.603 139.281L677.911 138.874L678.725 143.49L685.188 142.351L685.839 146.044L679.376 147.184L681.492 159.186C681.585 159.709 681.808 160.122 682.163 160.424C682.525 160.725 683.026 160.819 683.664 160.707C684.38 160.581 684.946 160.239 685.364 159.681C685.78 159.116 685.974 158.372 685.946 157.449L688.797 157.422C688.84 158.342 688.764 159.217 688.569 160.044C688.38 160.863 688.077 161.618 687.66 162.311C687.241 162.995 686.674 163.579 685.958 164.063C685.248 164.537 684.42 164.857 683.474 165.024C681.173 165.43 679.271 165.214 677.767 164.376C676.269 163.53 675.356 162.18 675.03 160.325L672.913 148.323L670.605 148.73L669.954 145.037L670.415 144.956C671.6 144.747 672.587 144.224 673.375 143.387C674.164 142.549 674.906 141.181 675.603 139.281ZM706.07 133.909L708.378 133.502L709.192 138.118L715.655 136.979L716.306 140.672L709.843 141.811L711.96 153.814C712.052 154.337 712.276 154.75 712.63 155.052C712.993 155.353 713.493 155.447 714.132 155.335C714.847 155.208 715.414 154.867 715.831 154.309C716.247 153.744 716.441 153 716.413 152.076L719.264 152.05C719.308 152.97 719.232 153.844 719.037 154.672C718.848 155.491 718.545 156.246 718.127 156.939C717.709 157.623 717.141 158.207 716.425 158.69C715.716 159.165 714.888 159.485 713.941 159.652C711.641 160.058 709.738 159.842 708.234 159.004C706.736 158.158 705.824 156.807 705.497 154.953L703.381 142.951L701.073 143.358L700.421 139.665L700.883 139.583C702.068 139.374 703.054 138.851 703.843 138.014C704.631 137.177 705.374 135.809 706.07 133.909ZM733.577 133.343C734.654 133.153 735.623 133.133 736.482 133.283C737.341 133.432 738.074 133.72 738.681 134.144C739.286 134.561 739.816 135.138 740.271 135.875C740.733 136.603 741.105 137.41 741.388 138.296C741.678 139.173 741.925 140.192 742.13 141.354L743.676 150.125L745.984 149.718L746.635 153.411L735.556 155.365L734.905 151.672L737.213 151.265L735.585 142.032C735.371 140.816 735.093 139.89 734.75 139.252C734.415 138.613 734.018 138.203 733.558 138.023C733.105 137.841 732.525 137.812 731.817 137.937C731.163 138.052 730.539 138.452 729.946 139.135C729.36 139.818 728.848 140.717 728.411 141.834L730.289 152.486L732.597 152.079L733.248 155.772L722.169 157.725L721.518 154.032L723.826 153.625L720.082 132.39L717.774 132.797L717.122 129.104L725.893 127.558L727.751 138.094C727.937 137.53 728.182 137.007 728.486 136.525C728.79 136.043 729.17 135.587 729.625 135.158C730.08 134.721 730.641 134.348 731.308 134.04C731.982 133.723 732.739 133.49 733.577 133.343ZM753.063 142.758C753.29 143.638 753.576 144.409 753.923 145.07C754.269 145.731 754.64 146.256 755.034 146.647C755.436 147.036 755.874 147.34 756.349 147.557C756.822 147.767 757.293 147.895 757.761 147.939C758.227 147.976 758.714 147.949 759.222 147.86C760.845 147.574 762.056 147.039 762.854 146.256C763.658 145.463 764.218 144.365 764.534 142.961L767.791 143.481C767.646 144.276 767.416 145.043 767.102 145.78C766.794 146.509 766.389 147.203 765.886 147.863C765.384 148.523 764.799 149.118 764.131 149.648C763.469 150.169 762.696 150.623 761.812 151.009C760.928 151.395 759.975 151.678 758.951 151.858C757.436 152.126 755.954 152.113 754.506 151.821C753.066 151.528 751.763 150.996 750.596 150.226C749.435 149.447 748.439 148.413 747.609 147.123C746.787 145.832 746.231 144.367 745.942 142.729C745.653 141.09 745.673 139.516 746.002 138.006C746.338 136.495 746.918 135.171 747.741 134.034C748.57 132.888 749.61 131.924 750.86 131.14C752.117 130.355 753.504 129.829 755.02 129.562C756.536 129.294 758.015 129.315 759.457 129.624C760.908 129.932 762.215 130.482 763.378 131.277C764.548 132.062 765.546 133.108 766.371 134.414C767.204 135.719 767.765 137.191 768.054 138.83L767.985 140.127L753.063 142.758ZM752.493 139.051L760.64 137.614C760.128 135.88 759.459 134.669 758.631 133.982C757.804 133.295 756.825 133.051 755.694 133.251C755.132 133.35 754.645 133.531 754.231 133.794C753.816 134.05 753.467 134.409 753.184 134.871C752.899 135.326 752.695 135.905 752.574 136.609C752.458 137.304 752.431 138.118 752.493 139.051ZM796.543 122.24C797.62 122.05 798.589 122.03 799.448 122.18C800.308 122.33 801.04 122.617 801.647 123.042C802.252 123.459 802.782 124.035 803.237 124.772C803.699 125.5 804.071 126.307 804.354 127.193C804.644 128.07 804.891 129.09 805.096 130.252L806.642 139.022L808.95 138.615L809.602 142.309L798.523 144.262L797.871 140.569L800.179 140.162L798.552 130.929C798.337 129.714 798.059 128.787 797.716 128.149C797.381 127.51 796.984 127.101 796.524 126.92C796.071 126.738 795.491 126.709 794.783 126.834C794.121 126.951 793.491 127.359 792.893 128.06C792.295 128.76 791.775 129.685 791.335 130.833C791.472 131.381 791.596 131.973 791.709 132.612L793.255 141.383L795.563 140.976L796.214 144.669L785.135 146.623L784.484 142.93L786.792 142.523L785.164 133.29C784.95 132.074 784.672 131.148 784.329 130.51C783.994 129.871 783.597 129.461 783.136 129.28C782.684 129.098 782.104 129.07 781.396 129.195C780.75 129.309 780.136 129.698 779.555 130.364C778.975 131.03 778.467 131.905 778.031 132.989L779.868 143.744L782.176 143.337L782.827 147.03L771.748 148.983L771.097 145.29L773.405 144.883L770.963 131.034L768.655 131.441L768.004 127.748L775.171 126.484L777.338 129.327C777.532 128.761 777.777 128.242 778.074 127.769C778.378 127.287 778.758 126.832 779.214 126.402C779.676 125.964 780.241 125.59 780.908 125.282C781.576 124.974 782.325 124.747 783.156 124.6C784.087 124.436 784.937 124.397 785.706 124.484C786.473 124.563 787.148 124.765 787.729 125.091C788.316 125.408 788.829 125.821 789.268 126.331C789.706 126.833 790.09 127.439 790.422 128.15C790.526 127.616 790.667 127.108 790.843 126.624C791.027 126.14 791.284 125.658 791.612 125.18C791.939 124.694 792.319 124.266 792.754 123.896C793.195 123.517 793.739 123.183 794.386 122.894C795.032 122.598 795.751 122.38 796.543 122.24ZM841.31 122.379L843.111 132.592L845.419 132.185L846.07 135.878L838.88 137.146L837.43 134.927C836.843 136.188 836.067 137.118 835.102 137.717C834.144 138.314 832.738 138.776 830.884 139.103C829.922 139.273 828.996 139.262 828.105 139.07C827.224 138.884 826.44 138.554 825.753 138.08C825.075 137.605 824.499 136.992 824.025 136.243C823.56 135.492 823.246 134.655 823.083 133.732C822.802 132.139 823.192 130.71 824.254 129.444C825.315 128.17 826.815 127.362 828.753 127.02C830.315 126.745 831.634 126.667 832.71 126.786C833.785 126.898 834.745 127.213 835.59 127.73L834.727 122.837C834.605 122.145 834.407 121.585 834.133 121.157C833.866 120.72 833.522 120.412 833.102 120.232C832.68 120.045 832.226 119.942 831.739 119.925C831.252 119.908 830.681 119.957 830.027 120.072C829.504 120.165 829.051 120.359 828.667 120.657C828.993 121.115 829.206 121.621 829.303 122.175C829.484 123.199 829.276 124.136 828.68 124.986C828.091 125.828 827.285 126.339 826.261 126.519C825.238 126.7 824.302 126.496 823.452 125.908C822.609 125.311 822.098 124.501 821.917 123.478C821.825 122.954 821.838 122.444 821.957 121.947C822.083 121.449 822.297 120.995 822.597 120.585C822.848 120.208 823.116 119.863 823.402 119.551C823.687 119.231 824.057 118.9 824.512 118.558C824.974 118.207 825.486 117.894 826.049 117.62C826.611 117.347 827.295 117.087 828.101 116.842C828.913 116.588 829.811 116.374 830.796 116.2C832.073 115.975 833.307 115.952 834.497 116.131C835.686 116.31 836.748 116.662 837.682 117.188C838.615 117.713 839.403 118.423 840.044 119.317C840.686 120.212 841.108 121.232 841.31 122.379ZM836.396 132.301L836.115 130.708C835.558 130.338 834.952 130.052 834.298 129.85C833.65 129.639 833.072 129.579 832.564 129.668C831.472 129.861 830.735 130.181 830.354 130.629C829.971 131.069 829.852 131.697 829.996 132.513C830.168 133.49 830.487 134.175 830.953 134.569C831.419 134.963 832.175 135.068 833.222 134.883C833.814 134.779 834.397 134.482 834.969 133.992C835.547 133.493 836.023 132.93 836.396 132.301ZM843.101 106.891L851.872 105.344L856.267 130.272L858.576 129.865L859.227 133.558L848.148 135.512L847.496 131.819L849.805 131.412L846.06 110.177L843.752 110.584L843.101 106.891ZM856.027 104.612L864.797 103.065L869.193 127.993L871.501 127.586L872.152 131.279L861.073 133.233L860.422 129.54L862.73 129.133L858.986 107.898L856.678 108.305L856.027 104.612ZM874.924 129.922C874.08 129.325 873.569 128.515 873.388 127.491C873.208 126.468 873.412 125.536 874.002 124.694C874.597 123.843 875.407 123.328 876.43 123.147C877.453 122.967 878.387 123.175 879.23 123.772C880.079 124.36 880.594 125.166 880.774 126.189C880.955 127.212 880.747 128.149 880.151 129C879.562 129.842 878.756 130.353 877.733 130.533C876.709 130.714 875.773 130.51 874.924 129.922ZM870.054 102.305C870.65 101.454 871.459 100.939 872.482 100.758C873.506 100.578 874.439 100.786 875.282 101.383C876.131 101.971 876.646 102.777 876.827 103.8C877.114 105.431 877.228 107.763 877.168 110.796C877.106 113.822 876.953 116.574 876.708 119.052L874.769 119.394C873.691 117.149 872.605 114.615 871.513 111.793C870.419 108.964 869.728 106.733 869.441 105.102C869.26 104.079 869.465 103.147 870.054 102.305Z" fill="#E36464"/>
<defs>
<filter id="filter0_d_8_64" x="0.25" y="30.25" width="738" height="88.375" filterUnits="userSpaceOnUse" color-interpolation-filters="sRGB">
<feFlood flood-opacity="0" result="BackgroundImageFix"/>
<feColorMatrix in="SourceAlpha" type="matrix" values="0 0 0 0 0 0 0 0 0 0 0 0 0 0 0 0 0 0 127 0" result="hardAlpha"/>
<feOffset dy="4"/>
<feGaussianBlur stdDeviation="2"/>
<feComposite in2="hardAlpha" operator="out"/>
<feColorMatrix type="matrix" values="0 0 0 0 0 0 0 0 0 0 0 0 0 0 0 0 0 0 0.25 0"/>
<feBlend mode="normal" in2="BackgroundImageFix" result="effect1_dropShadow_8_64"/>
<feBlend mode="normal" in="SourceGraphic" in2="effect1_dropShadow_8_64" result="shape"/>
</filter>
</defs>
</svg>
